<mxfile host="Electron" modified="2023-11-27T23:52:52.430Z" agent="Mozilla/5.0 (Windows NT 10.0; Win64; x64) AppleWebKit/537.36 (KHTML, like Gecko) draw.io/22.1.2 Chrome/114.0.5735.289 Electron/25.9.4 Safari/537.36" etag="GL_czwI7i50GCN_hOoNd" version="22.1.2" type="device">
  <diagram id="C5RBs43oDa-KdzZeNtuy" name="Page-1">
    <mxGraphModel dx="1036" dy="606" grid="1" gridSize="10" guides="1" tooltips="1" connect="1" arrows="1" fold="1" page="1" pageScale="1" pageWidth="827" pageHeight="1169" math="0" shadow="0">
      <root>
        <mxCell id="WIyWlLk6GJQsqaUBKTNV-0" />
        <mxCell id="WIyWlLk6GJQsqaUBKTNV-1" parent="WIyWlLk6GJQsqaUBKTNV-0" />
        <mxCell id="d4cKuouEnTY3PNC4RuDY-2" style="edgeStyle=orthogonalEdgeStyle;rounded=0;orthogonalLoop=1;jettySize=auto;html=1;exitX=0.5;exitY=1;exitDx=0;exitDy=0;" edge="1" parent="WIyWlLk6GJQsqaUBKTNV-1" source="d4cKuouEnTY3PNC4RuDY-0" target="d4cKuouEnTY3PNC4RuDY-1">
          <mxGeometry relative="1" as="geometry" />
        </mxCell>
        <mxCell id="d4cKuouEnTY3PNC4RuDY-0" value="start" style="ellipse;whiteSpace=wrap;html=1;" vertex="1" parent="WIyWlLk6GJQsqaUBKTNV-1">
          <mxGeometry x="354" y="50" width="120" height="80" as="geometry" />
        </mxCell>
        <mxCell id="d4cKuouEnTY3PNC4RuDY-4" style="edgeStyle=orthogonalEdgeStyle;rounded=0;orthogonalLoop=1;jettySize=auto;html=1;exitX=0.5;exitY=1;exitDx=0;exitDy=0;" edge="1" parent="WIyWlLk6GJQsqaUBKTNV-1" source="d4cKuouEnTY3PNC4RuDY-1" target="d4cKuouEnTY3PNC4RuDY-3">
          <mxGeometry relative="1" as="geometry" />
        </mxCell>
        <mxCell id="d4cKuouEnTY3PNC4RuDY-1" value="menu" style="shape=parallelogram;perimeter=parallelogramPerimeter;whiteSpace=wrap;html=1;fixedSize=1;" vertex="1" parent="WIyWlLk6GJQsqaUBKTNV-1">
          <mxGeometry x="354" y="170" width="120" height="60" as="geometry" />
        </mxCell>
        <mxCell id="d4cKuouEnTY3PNC4RuDY-5" style="edgeStyle=orthogonalEdgeStyle;rounded=0;orthogonalLoop=1;jettySize=auto;html=1;exitX=0.5;exitY=1;exitDx=0;exitDy=0;" edge="1" parent="WIyWlLk6GJQsqaUBKTNV-1" source="d4cKuouEnTY3PNC4RuDY-3">
          <mxGeometry relative="1" as="geometry">
            <mxPoint x="414" y="360" as="targetPoint" />
          </mxGeometry>
        </mxCell>
        <mxCell id="d4cKuouEnTY3PNC4RuDY-3" value="newChar,oldChar&lt;br&gt;str[100],&amp;nbsp;&lt;br&gt;count = 0,&lt;br&gt;choice&lt;br&gt;temp&amp;nbsp;" style="rounded=0;whiteSpace=wrap;html=1;" vertex="1" parent="WIyWlLk6GJQsqaUBKTNV-1">
          <mxGeometry x="354" y="260" width="120" height="60" as="geometry" />
        </mxCell>
        <mxCell id="d4cKuouEnTY3PNC4RuDY-7" style="edgeStyle=orthogonalEdgeStyle;rounded=0;orthogonalLoop=1;jettySize=auto;html=1;exitX=0.5;exitY=1;exitDx=0;exitDy=0;" edge="1" parent="WIyWlLk6GJQsqaUBKTNV-1" source="d4cKuouEnTY3PNC4RuDY-6">
          <mxGeometry relative="1" as="geometry">
            <mxPoint x="414" y="480" as="targetPoint" />
          </mxGeometry>
        </mxCell>
        <mxCell id="d4cKuouEnTY3PNC4RuDY-10" style="edgeStyle=orthogonalEdgeStyle;rounded=0;orthogonalLoop=1;jettySize=auto;html=1;exitX=1;exitY=0.5;exitDx=0;exitDy=0;entryX=0;entryY=0.5;entryDx=0;entryDy=0;" edge="1" parent="WIyWlLk6GJQsqaUBKTNV-1" source="d4cKuouEnTY3PNC4RuDY-6" target="d4cKuouEnTY3PNC4RuDY-9">
          <mxGeometry relative="1" as="geometry" />
        </mxCell>
        <mxCell id="d4cKuouEnTY3PNC4RuDY-6" value="choice==1?" style="rhombus;whiteSpace=wrap;html=1;" vertex="1" parent="WIyWlLk6GJQsqaUBKTNV-1">
          <mxGeometry x="374" y="360" width="80" height="80" as="geometry" />
        </mxCell>
        <mxCell id="d4cKuouEnTY3PNC4RuDY-8" value="nhap chuoi" style="shape=parallelogram;perimeter=parallelogramPerimeter;whiteSpace=wrap;html=1;fixedSize=1;" vertex="1" parent="WIyWlLk6GJQsqaUBKTNV-1">
          <mxGeometry x="354" y="480" width="120" height="60" as="geometry" />
        </mxCell>
        <mxCell id="d4cKuouEnTY3PNC4RuDY-14" style="edgeStyle=orthogonalEdgeStyle;rounded=0;orthogonalLoop=1;jettySize=auto;html=1;exitX=1;exitY=0.5;exitDx=0;exitDy=0;" edge="1" parent="WIyWlLk6GJQsqaUBKTNV-1" source="d4cKuouEnTY3PNC4RuDY-9">
          <mxGeometry relative="1" as="geometry">
            <mxPoint x="770" y="400" as="targetPoint" />
          </mxGeometry>
        </mxCell>
        <mxCell id="d4cKuouEnTY3PNC4RuDY-9" value="choice==2?" style="rhombus;whiteSpace=wrap;html=1;" vertex="1" parent="WIyWlLk6GJQsqaUBKTNV-1">
          <mxGeometry x="530" y="360" width="80" height="80" as="geometry" />
        </mxCell>
        <mxCell id="d4cKuouEnTY3PNC4RuDY-12" value="in chuoi" style="shape=parallelogram;perimeter=parallelogramPerimeter;whiteSpace=wrap;html=1;fixedSize=1;" vertex="1" parent="WIyWlLk6GJQsqaUBKTNV-1">
          <mxGeometry x="530" y="480" width="120" height="60" as="geometry" />
        </mxCell>
        <mxCell id="d4cKuouEnTY3PNC4RuDY-13" style="edgeStyle=orthogonalEdgeStyle;rounded=0;orthogonalLoop=1;jettySize=auto;html=1;exitX=0.5;exitY=1;exitDx=0;exitDy=0;entryX=0.337;entryY=0.05;entryDx=0;entryDy=0;entryPerimeter=0;" edge="1" parent="WIyWlLk6GJQsqaUBKTNV-1" source="d4cKuouEnTY3PNC4RuDY-9" target="d4cKuouEnTY3PNC4RuDY-12">
          <mxGeometry relative="1" as="geometry" />
        </mxCell>
        <mxCell id="d4cKuouEnTY3PNC4RuDY-17" style="edgeStyle=orthogonalEdgeStyle;rounded=0;orthogonalLoop=1;jettySize=auto;html=1;exitX=0.5;exitY=1;exitDx=0;exitDy=0;entryX=0.5;entryY=0;entryDx=0;entryDy=0;" edge="1" parent="WIyWlLk6GJQsqaUBKTNV-1" source="d4cKuouEnTY3PNC4RuDY-15" target="d4cKuouEnTY3PNC4RuDY-16">
          <mxGeometry relative="1" as="geometry" />
        </mxCell>
        <mxCell id="d4cKuouEnTY3PNC4RuDY-29" style="edgeStyle=orthogonalEdgeStyle;rounded=0;orthogonalLoop=1;jettySize=auto;html=1;exitX=1;exitY=0.5;exitDx=0;exitDy=0;" edge="1" parent="WIyWlLk6GJQsqaUBKTNV-1" source="d4cKuouEnTY3PNC4RuDY-15">
          <mxGeometry relative="1" as="geometry">
            <mxPoint x="1110" y="400" as="targetPoint" />
          </mxGeometry>
        </mxCell>
        <mxCell id="d4cKuouEnTY3PNC4RuDY-15" value="choice==3?" style="rhombus;whiteSpace=wrap;html=1;" vertex="1" parent="WIyWlLk6GJQsqaUBKTNV-1">
          <mxGeometry x="770" y="360" width="80" height="80" as="geometry" />
        </mxCell>
        <mxCell id="d4cKuouEnTY3PNC4RuDY-19" style="edgeStyle=orthogonalEdgeStyle;rounded=0;orthogonalLoop=1;jettySize=auto;html=1;exitX=0.5;exitY=1;exitDx=0;exitDy=0;entryX=0.5;entryY=0;entryDx=0;entryDy=0;" edge="1" parent="WIyWlLk6GJQsqaUBKTNV-1" source="d4cKuouEnTY3PNC4RuDY-16" target="d4cKuouEnTY3PNC4RuDY-18">
          <mxGeometry relative="1" as="geometry" />
        </mxCell>
        <mxCell id="d4cKuouEnTY3PNC4RuDY-16" value="findValue" style="shape=parallelogram;perimeter=parallelogramPerimeter;whiteSpace=wrap;html=1;fixedSize=1;" vertex="1" parent="WIyWlLk6GJQsqaUBKTNV-1">
          <mxGeometry x="750" y="470" width="120" height="60" as="geometry" />
        </mxCell>
        <mxCell id="d4cKuouEnTY3PNC4RuDY-21" style="edgeStyle=orthogonalEdgeStyle;rounded=0;orthogonalLoop=1;jettySize=auto;html=1;exitX=0.5;exitY=1;exitDx=0;exitDy=0;" edge="1" parent="WIyWlLk6GJQsqaUBKTNV-1" source="d4cKuouEnTY3PNC4RuDY-18" target="d4cKuouEnTY3PNC4RuDY-20">
          <mxGeometry relative="1" as="geometry" />
        </mxCell>
        <mxCell id="d4cKuouEnTY3PNC4RuDY-28" style="edgeStyle=orthogonalEdgeStyle;rounded=0;orthogonalLoop=1;jettySize=auto;html=1;exitX=0;exitY=0.5;exitDx=0;exitDy=0;entryX=1;entryY=0.5;entryDx=0;entryDy=0;" edge="1" parent="WIyWlLk6GJQsqaUBKTNV-1" source="d4cKuouEnTY3PNC4RuDY-18" target="d4cKuouEnTY3PNC4RuDY-26">
          <mxGeometry relative="1" as="geometry" />
        </mxCell>
        <mxCell id="d4cKuouEnTY3PNC4RuDY-18" value="i&amp;lt;strlen(str)" style="rhombus;whiteSpace=wrap;html=1;" vertex="1" parent="WIyWlLk6GJQsqaUBKTNV-1">
          <mxGeometry x="770" y="560" width="80" height="80" as="geometry" />
        </mxCell>
        <mxCell id="d4cKuouEnTY3PNC4RuDY-20" value="str[i] == findValue?" style="rhombus;whiteSpace=wrap;html=1;" vertex="1" parent="WIyWlLk6GJQsqaUBKTNV-1">
          <mxGeometry x="770" y="670" width="80" height="80" as="geometry" />
        </mxCell>
        <mxCell id="d4cKuouEnTY3PNC4RuDY-24" style="edgeStyle=orthogonalEdgeStyle;rounded=0;orthogonalLoop=1;jettySize=auto;html=1;exitX=1;exitY=0.5;exitDx=0;exitDy=0;entryX=1;entryY=0.5;entryDx=0;entryDy=0;" edge="1" parent="WIyWlLk6GJQsqaUBKTNV-1" source="d4cKuouEnTY3PNC4RuDY-22" target="d4cKuouEnTY3PNC4RuDY-18">
          <mxGeometry relative="1" as="geometry" />
        </mxCell>
        <mxCell id="d4cKuouEnTY3PNC4RuDY-22" value="count++&lt;br&gt;i++" style="rounded=0;whiteSpace=wrap;html=1;" vertex="1" parent="WIyWlLk6GJQsqaUBKTNV-1">
          <mxGeometry x="760" y="790" width="120" height="60" as="geometry" />
        </mxCell>
        <mxCell id="d4cKuouEnTY3PNC4RuDY-23" style="edgeStyle=orthogonalEdgeStyle;rounded=0;orthogonalLoop=1;jettySize=auto;html=1;exitX=0.5;exitY=1;exitDx=0;exitDy=0;entryX=0.433;entryY=-0.037;entryDx=0;entryDy=0;entryPerimeter=0;" edge="1" parent="WIyWlLk6GJQsqaUBKTNV-1" source="d4cKuouEnTY3PNC4RuDY-20" target="d4cKuouEnTY3PNC4RuDY-22">
          <mxGeometry relative="1" as="geometry" />
        </mxCell>
        <mxCell id="d4cKuouEnTY3PNC4RuDY-26" value="so lan xuat hien&lt;br&gt;" style="shape=parallelogram;perimeter=parallelogramPerimeter;whiteSpace=wrap;html=1;fixedSize=1;" vertex="1" parent="WIyWlLk6GJQsqaUBKTNV-1">
          <mxGeometry x="640" y="570" width="120" height="60" as="geometry" />
        </mxCell>
        <mxCell id="d4cKuouEnTY3PNC4RuDY-32" style="edgeStyle=orthogonalEdgeStyle;rounded=0;orthogonalLoop=1;jettySize=auto;html=1;exitX=0.5;exitY=1;exitDx=0;exitDy=0;entryX=0.5;entryY=0;entryDx=0;entryDy=0;" edge="1" parent="WIyWlLk6GJQsqaUBKTNV-1" source="d4cKuouEnTY3PNC4RuDY-30" target="d4cKuouEnTY3PNC4RuDY-31">
          <mxGeometry relative="1" as="geometry" />
        </mxCell>
        <mxCell id="d4cKuouEnTY3PNC4RuDY-42" style="edgeStyle=orthogonalEdgeStyle;rounded=0;orthogonalLoop=1;jettySize=auto;html=1;exitX=1;exitY=0.5;exitDx=0;exitDy=0;" edge="1" parent="WIyWlLk6GJQsqaUBKTNV-1" source="d4cKuouEnTY3PNC4RuDY-30">
          <mxGeometry relative="1" as="geometry">
            <mxPoint x="1400" y="400" as="targetPoint" />
          </mxGeometry>
        </mxCell>
        <mxCell id="d4cKuouEnTY3PNC4RuDY-30" value="choice==4?" style="rhombus;whiteSpace=wrap;html=1;" vertex="1" parent="WIyWlLk6GJQsqaUBKTNV-1">
          <mxGeometry x="1110" y="360" width="80" height="80" as="geometry" />
        </mxCell>
        <mxCell id="d4cKuouEnTY3PNC4RuDY-41" style="edgeStyle=orthogonalEdgeStyle;rounded=0;orthogonalLoop=1;jettySize=auto;html=1;exitX=0.5;exitY=1;exitDx=0;exitDy=0;entryX=0.5;entryY=0;entryDx=0;entryDy=0;" edge="1" parent="WIyWlLk6GJQsqaUBKTNV-1" source="d4cKuouEnTY3PNC4RuDY-31" target="d4cKuouEnTY3PNC4RuDY-35">
          <mxGeometry relative="1" as="geometry" />
        </mxCell>
        <mxCell id="d4cKuouEnTY3PNC4RuDY-31" value="oldChar,newChar" style="shape=parallelogram;perimeter=parallelogramPerimeter;whiteSpace=wrap;html=1;fixedSize=1;" vertex="1" parent="WIyWlLk6GJQsqaUBKTNV-1">
          <mxGeometry x="1090" y="460" width="120" height="60" as="geometry" />
        </mxCell>
        <mxCell id="d4cKuouEnTY3PNC4RuDY-33" style="edgeStyle=orthogonalEdgeStyle;rounded=0;orthogonalLoop=1;jettySize=auto;html=1;exitX=0.5;exitY=1;exitDx=0;exitDy=0;" edge="1" source="d4cKuouEnTY3PNC4RuDY-35" target="d4cKuouEnTY3PNC4RuDY-36" parent="WIyWlLk6GJQsqaUBKTNV-1">
          <mxGeometry relative="1" as="geometry" />
        </mxCell>
        <mxCell id="d4cKuouEnTY3PNC4RuDY-34" style="edgeStyle=orthogonalEdgeStyle;rounded=0;orthogonalLoop=1;jettySize=auto;html=1;exitX=0;exitY=0.5;exitDx=0;exitDy=0;entryX=1;entryY=0.5;entryDx=0;entryDy=0;" edge="1" source="d4cKuouEnTY3PNC4RuDY-35" parent="WIyWlLk6GJQsqaUBKTNV-1">
          <mxGeometry relative="1" as="geometry">
            <mxPoint x="1090" y="590" as="targetPoint" />
          </mxGeometry>
        </mxCell>
        <mxCell id="d4cKuouEnTY3PNC4RuDY-35" value="i&amp;lt;strlen(str)" style="rhombus;whiteSpace=wrap;html=1;" vertex="1" parent="WIyWlLk6GJQsqaUBKTNV-1">
          <mxGeometry x="1110" y="550" width="80" height="80" as="geometry" />
        </mxCell>
        <mxCell id="d4cKuouEnTY3PNC4RuDY-36" value="str[i] == oldChar?" style="rhombus;whiteSpace=wrap;html=1;" vertex="1" parent="WIyWlLk6GJQsqaUBKTNV-1">
          <mxGeometry x="1110" y="660" width="80" height="80" as="geometry" />
        </mxCell>
        <mxCell id="d4cKuouEnTY3PNC4RuDY-37" style="edgeStyle=orthogonalEdgeStyle;rounded=0;orthogonalLoop=1;jettySize=auto;html=1;exitX=1;exitY=0.5;exitDx=0;exitDy=0;entryX=1;entryY=0.5;entryDx=0;entryDy=0;" edge="1" source="d4cKuouEnTY3PNC4RuDY-38" target="d4cKuouEnTY3PNC4RuDY-35" parent="WIyWlLk6GJQsqaUBKTNV-1">
          <mxGeometry relative="1" as="geometry" />
        </mxCell>
        <mxCell id="d4cKuouEnTY3PNC4RuDY-38" value="str[i] = newChar&lt;br&gt;i++" style="rounded=0;whiteSpace=wrap;html=1;" vertex="1" parent="WIyWlLk6GJQsqaUBKTNV-1">
          <mxGeometry x="1100" y="780" width="120" height="60" as="geometry" />
        </mxCell>
        <mxCell id="d4cKuouEnTY3PNC4RuDY-39" style="edgeStyle=orthogonalEdgeStyle;rounded=0;orthogonalLoop=1;jettySize=auto;html=1;exitX=0.5;exitY=1;exitDx=0;exitDy=0;entryX=0.433;entryY=-0.037;entryDx=0;entryDy=0;entryPerimeter=0;" edge="1" source="d4cKuouEnTY3PNC4RuDY-36" target="d4cKuouEnTY3PNC4RuDY-38" parent="WIyWlLk6GJQsqaUBKTNV-1">
          <mxGeometry relative="1" as="geometry" />
        </mxCell>
        <mxCell id="d4cKuouEnTY3PNC4RuDY-40" value="mang sau khi thay" style="shape=parallelogram;perimeter=parallelogramPerimeter;whiteSpace=wrap;html=1;fixedSize=1;" vertex="1" parent="WIyWlLk6GJQsqaUBKTNV-1">
          <mxGeometry x="980" y="570" width="120" height="60" as="geometry" />
        </mxCell>
        <mxCell id="d4cKuouEnTY3PNC4RuDY-45" style="edgeStyle=orthogonalEdgeStyle;rounded=0;orthogonalLoop=1;jettySize=auto;html=1;exitX=0.5;exitY=1;exitDx=0;exitDy=0;entryX=0.5;entryY=0;entryDx=0;entryDy=0;" edge="1" parent="WIyWlLk6GJQsqaUBKTNV-1" source="d4cKuouEnTY3PNC4RuDY-43" target="d4cKuouEnTY3PNC4RuDY-44">
          <mxGeometry relative="1" as="geometry" />
        </mxCell>
        <mxCell id="d4cKuouEnTY3PNC4RuDY-43" value="choice==5?" style="rhombus;whiteSpace=wrap;html=1;" vertex="1" parent="WIyWlLk6GJQsqaUBKTNV-1">
          <mxGeometry x="1400" y="360" width="80" height="80" as="geometry" />
        </mxCell>
        <mxCell id="d4cKuouEnTY3PNC4RuDY-47" style="edgeStyle=orthogonalEdgeStyle;rounded=0;orthogonalLoop=1;jettySize=auto;html=1;exitX=0.5;exitY=1;exitDx=0;exitDy=0;entryX=0.5;entryY=0;entryDx=0;entryDy=0;" edge="1" parent="WIyWlLk6GJQsqaUBKTNV-1" source="d4cKuouEnTY3PNC4RuDY-44" target="d4cKuouEnTY3PNC4RuDY-46">
          <mxGeometry relative="1" as="geometry" />
        </mxCell>
        <mxCell id="d4cKuouEnTY3PNC4RuDY-44" value="temp = 0" style="rounded=0;whiteSpace=wrap;html=1;" vertex="1" parent="WIyWlLk6GJQsqaUBKTNV-1">
          <mxGeometry x="1380" y="470" width="120" height="60" as="geometry" />
        </mxCell>
        <mxCell id="d4cKuouEnTY3PNC4RuDY-49" style="edgeStyle=orthogonalEdgeStyle;rounded=0;orthogonalLoop=1;jettySize=auto;html=1;exitX=0.5;exitY=1;exitDx=0;exitDy=0;entryX=0.5;entryY=0;entryDx=0;entryDy=0;" edge="1" parent="WIyWlLk6GJQsqaUBKTNV-1" source="d4cKuouEnTY3PNC4RuDY-46" target="d4cKuouEnTY3PNC4RuDY-48">
          <mxGeometry relative="1" as="geometry" />
        </mxCell>
        <mxCell id="d4cKuouEnTY3PNC4RuDY-46" value="delValue" style="shape=parallelogram;perimeter=parallelogramPerimeter;whiteSpace=wrap;html=1;fixedSize=1;" vertex="1" parent="WIyWlLk6GJQsqaUBKTNV-1">
          <mxGeometry x="1380" y="570" width="120" height="60" as="geometry" />
        </mxCell>
        <mxCell id="d4cKuouEnTY3PNC4RuDY-51" style="edgeStyle=orthogonalEdgeStyle;rounded=0;orthogonalLoop=1;jettySize=auto;html=1;exitX=0.5;exitY=1;exitDx=0;exitDy=0;entryX=0.5;entryY=0;entryDx=0;entryDy=0;" edge="1" parent="WIyWlLk6GJQsqaUBKTNV-1" source="d4cKuouEnTY3PNC4RuDY-48" target="d4cKuouEnTY3PNC4RuDY-50">
          <mxGeometry relative="1" as="geometry" />
        </mxCell>
        <mxCell id="d4cKuouEnTY3PNC4RuDY-55" style="edgeStyle=orthogonalEdgeStyle;rounded=0;orthogonalLoop=1;jettySize=auto;html=1;exitX=0;exitY=0.5;exitDx=0;exitDy=0;" edge="1" parent="WIyWlLk6GJQsqaUBKTNV-1" source="d4cKuouEnTY3PNC4RuDY-48">
          <mxGeometry relative="1" as="geometry">
            <mxPoint x="1360" y="700" as="targetPoint" />
          </mxGeometry>
        </mxCell>
        <mxCell id="d4cKuouEnTY3PNC4RuDY-48" value="i&amp;lt;strlen(str)" style="rhombus;whiteSpace=wrap;html=1;" vertex="1" parent="WIyWlLk6GJQsqaUBKTNV-1">
          <mxGeometry x="1400" y="660" width="80" height="80" as="geometry" />
        </mxCell>
        <mxCell id="d4cKuouEnTY3PNC4RuDY-52" style="edgeStyle=orthogonalEdgeStyle;rounded=0;orthogonalLoop=1;jettySize=auto;html=1;" edge="1" parent="WIyWlLk6GJQsqaUBKTNV-1" source="d4cKuouEnTY3PNC4RuDY-50">
          <mxGeometry relative="1" as="geometry">
            <mxPoint x="1440" y="890" as="targetPoint" />
          </mxGeometry>
        </mxCell>
        <mxCell id="d4cKuouEnTY3PNC4RuDY-50" value="str[i] != delValue?" style="rhombus;whiteSpace=wrap;html=1;" vertex="1" parent="WIyWlLk6GJQsqaUBKTNV-1">
          <mxGeometry x="1400" y="770" width="80" height="80" as="geometry" />
        </mxCell>
        <mxCell id="d4cKuouEnTY3PNC4RuDY-54" style="edgeStyle=orthogonalEdgeStyle;rounded=0;orthogonalLoop=1;jettySize=auto;html=1;exitX=1;exitY=0.5;exitDx=0;exitDy=0;entryX=1;entryY=0.5;entryDx=0;entryDy=0;" edge="1" parent="WIyWlLk6GJQsqaUBKTNV-1" source="d4cKuouEnTY3PNC4RuDY-53" target="d4cKuouEnTY3PNC4RuDY-48">
          <mxGeometry relative="1" as="geometry" />
        </mxCell>
        <mxCell id="d4cKuouEnTY3PNC4RuDY-53" value="str[temp] = str[i]&lt;br&gt;temp++&lt;br&gt;i++" style="rounded=0;whiteSpace=wrap;html=1;" vertex="1" parent="WIyWlLk6GJQsqaUBKTNV-1">
          <mxGeometry x="1380" y="890" width="120" height="60" as="geometry" />
        </mxCell>
        <mxCell id="d4cKuouEnTY3PNC4RuDY-56" value="chuoi sau khi xoa" style="shape=parallelogram;perimeter=parallelogramPerimeter;whiteSpace=wrap;html=1;fixedSize=1;" vertex="1" parent="WIyWlLk6GJQsqaUBKTNV-1">
          <mxGeometry x="1250" y="680" width="120" height="60" as="geometry" />
        </mxCell>
      </root>
    </mxGraphModel>
  </diagram>
</mxfile>
